# xmcd CD database file
#
# Track frame offsets:
#	150
#	19812
#	40015
#	58962
#	79250
#	96495
#	124975
#	146917
#	172992
#	194815
#	218287
#	242032
#	265150
#
# Disc length: 3922 seconds
#
# Revision: 18
# Processed by: cddbd v1.5.2PL0 Copyright (c) Steve Scherf et al.
# Submitted via: CDex 1.70beta3
#
DISCID=c10f500d
DTITLE=徳永英明 - SINGLE COLLECTION 1986～1991
DYEAR=1998
DGENRE=JPop
TTITLE0=レイニーブルー
TTITLE1=夏のラジオ
TTITLE2=BIRDS
TTITLE3=輝きながら…
TTITLE4=風のエオリア
TTITLE5=最後の言い訳
TTITLE6=恋人
TTITLE7=MYSELF ～風になりたい～
TTITLE8=夢を信じて
TTITLE9=壊れかけのRadio
TTITLE10=Wednesday Moon
TTITLE11=LOVE IS ALL
TTITLE12=Revolution
EXTD=YEAR: 1998
EXTT0=
EXTT1=
EXTT2=
EXTT3=
EXTT4=
EXTT5=
EXTT6=
EXTT7=
EXTT8=
EXTT9=
EXTT10=
EXTT11=
EXTT12=
PLAYORDER=
